<svg xmlns="http://www.w3.org/2000/svg" xmlns:xlink="http://www.w3.org/1999/xlink" width="31.096" height="31.096" viewBox="0 0 31.096 31.096">
  <defs>
    <linearGradient id="linear-gradient" x1="0.5" x2="0.5" y2="1" gradientUnits="objectBoundingBox">
      <stop offset="0" stop-color="#e76d10"/>
      <stop offset="1" stop-color="#f7ac4c"/>
    </linearGradient>
  </defs>
  <g id="Line" transform="translate(-2 -2)">
    <path id="Path_538" data-name="Path 538" d="M17.669,13.308v2.12a.707.707,0,0,0,1.148.552l3.34-2.672h1.165A5.654,5.654,0,0,0,23.323,2H17.669A5.654,5.654,0,0,0,17.669,13.308Z" transform="translate(-2.948)" fill="url(#linear-gradient)"/>
    <path id="Path_539" data-name="Path 539" d="M33.308,19H27.654a5.654,5.654,0,1,0,0,11.308h1.165l3.34,2.672a.712.712,0,0,0,1.148-.552v-2.12a5.654,5.654,0,0,0,0-11.308Z" transform="translate(-5.866 -4.986)" fill="url(#linear-gradient)"/>
    <path id="Path_540" data-name="Path 540" d="M5.062,23.7A4.945,4.945,0,1,0,9.946,18a4.972,4.972,0,0,0-4.884,5.7Z" transform="translate(-0.879 -4.692)" fill="url(#linear-gradient)"/>
    <path id="Path_541" data-name="Path 541" d="M2.707,41.854H15.428a.707.707,0,0,0,.707-.707V37.614a7.06,7.06,0,0,0-2.963-5.749,6.4,6.4,0,0,1-8.208,0A7.06,7.06,0,0,0,2,37.614v3.534a.707.707,0,0,0,.707.707Z" transform="translate(0 -8.759)" fill="url(#linear-gradient)"/>
  </g>
</svg>
